<svg width="158" height="156" viewBox="0 0 158 156" fill="none" xmlns="http://www.w3.org/2000/svg">
<g clip-path="url(#clip0_0_3)">
<rect x="42" y="47.5" width="75" height="62" rx="5" fill="#FFDC2B"/>
<path d="M75.2487 6.75695C77.2394 4.4979 80.7606 4.4979 82.7513 6.75694L121.91 51.1943C124.756 54.4235 122.463 59.5 118.159 59.5H39.841C35.5369 59.5 33.2441 54.4235 36.0897 51.1943L75.2487 6.75695Z" fill="#FFDC2B"/>
<path d="M85 75C85 72.2386 87.2386 70 90 70H98C100.761 70 103 72.2386 103 75V109H85V75Z" fill="white"/>
<path d="M16.7322 123.08H13.8913C13.8535 122.788 13.7758 122.525 13.6584 122.29C13.541 122.055 13.3857 121.854 13.1925 121.688C12.9993 121.521 12.7701 121.394 12.505 121.307C12.2436 121.216 11.9538 121.17 11.6357 121.17C11.0713 121.17 10.5845 121.309 10.1754 121.585C9.77012 121.862 9.45762 122.261 9.23793 122.784C9.02202 123.307 8.91406 123.939 8.91406 124.682C8.91406 125.455 9.02391 126.102 9.24361 126.625C9.46709 127.144 9.77959 127.536 10.1811 127.801C10.5864 128.062 11.0656 128.193 11.6186 128.193C11.9292 128.193 12.2114 128.153 12.4652 128.074C12.7228 127.994 12.9482 127.879 13.1413 127.727C13.3383 127.572 13.4993 127.384 13.6243 127.165C13.7531 126.941 13.8421 126.689 13.8913 126.409L16.7322 126.426C16.683 126.941 16.5334 127.449 16.2834 127.949C16.0372 128.449 15.6982 128.905 15.2663 129.318C14.8345 129.727 14.308 130.053 13.6868 130.295C13.0694 130.538 12.361 130.659 11.5618 130.659C10.5088 130.659 9.56558 130.428 8.73224 129.966C7.9027 129.5 7.2474 128.822 6.76634 127.932C6.28527 127.042 6.04474 125.958 6.04474 124.682C6.04474 123.402 6.28906 122.316 6.7777 121.426C7.26634 120.536 7.92732 119.86 8.76065 119.398C9.59399 118.936 10.5277 118.705 11.5618 118.705C12.2663 118.705 12.9179 118.803 13.5163 119C14.1148 119.193 14.6413 119.477 15.0959 119.852C15.5504 120.223 15.9197 120.68 16.2038 121.222C16.4879 121.763 16.6641 122.383 16.7322 123.08ZM17.9609 121.148V118.864H27.7962V121.148H24.2678V130.5H21.495V121.148H17.9609ZM29.1697 130.5V118.864H33.9766C34.8478 118.864 35.5997 119.034 36.2322 119.375C36.8686 119.712 37.3591 120.184 37.7038 120.79C38.0485 121.392 38.2209 122.093 38.2209 122.892C38.2209 123.695 38.0447 124.398 37.6925 125C37.344 125.598 36.8459 126.062 36.1982 126.392C35.5504 126.722 34.7815 126.886 33.8913 126.886H30.9254V124.67H33.3686C33.7929 124.67 34.147 124.597 34.4311 124.449C34.719 124.301 34.9368 124.095 35.0845 123.83C35.2322 123.561 35.3061 123.248 35.3061 122.892C35.3061 122.532 35.2322 122.222 35.0845 121.96C34.9368 121.695 34.719 121.491 34.4311 121.347C34.1432 121.203 33.7891 121.131 33.3686 121.131H31.9822V130.5H29.1697ZM50.5902 124.682C50.5902 125.962 50.344 127.047 49.8516 127.938C49.3591 128.828 48.6925 129.504 47.8516 129.966C47.0144 130.428 46.075 130.659 45.0334 130.659C43.9879 130.659 43.0466 130.426 42.2095 129.96C41.3724 129.494 40.7076 128.818 40.2152 127.932C39.7266 127.042 39.4822 125.958 39.4822 124.682C39.4822 123.402 39.7266 122.316 40.2152 121.426C40.7076 120.536 41.3724 119.86 42.2095 119.398C43.0466 118.936 43.9879 118.705 45.0334 118.705C46.075 118.705 47.0144 118.936 47.8516 119.398C48.6925 119.86 49.3591 120.536 49.8516 121.426C50.344 122.316 50.5902 123.402 50.5902 124.682ZM47.7152 124.682C47.7152 123.924 47.6072 123.284 47.3913 122.761C47.1792 122.239 46.8724 121.843 46.4709 121.574C46.0732 121.305 45.594 121.17 45.0334 121.17C44.4766 121.17 43.9974 121.305 43.5959 121.574C43.1944 121.843 42.8857 122.239 42.6697 122.761C42.4576 123.284 42.3516 123.924 42.3516 124.682C42.3516 125.439 42.4576 126.08 42.6697 126.602C42.8857 127.125 43.1944 127.521 43.5959 127.79C43.9974 128.059 44.4766 128.193 45.0334 128.193C45.594 128.193 46.0732 128.059 46.4709 127.79C46.8724 127.521 47.1792 127.125 47.3913 126.602C47.6072 126.08 47.7152 125.439 47.7152 124.682ZM52.2322 118.864H55.0391V125.568H55.1357L59.7152 118.864H62.1357V130.5H59.3232V123.784H59.2493L54.6129 130.5H52.2322V118.864ZM63.5234 121.148V118.864H73.3587V121.148H69.8303V130.5H67.0575V121.148H63.5234ZM74.7322 130.5V118.864H82.8459V121.148H77.5447V123.534H82.4311V125.824H77.5447V128.216H82.8459V130.5H74.7322ZM84.1016 130.5V128.295L84.4197 128.261C84.8288 128.212 85.1622 128.047 85.4197 127.767C85.6773 127.483 85.8724 127.032 86.005 126.415C86.1413 125.794 86.2285 124.955 86.2663 123.898L86.4538 118.864H94.6186V130.5H91.897V121.08H89.0504L88.8686 124.932C88.8042 126.261 88.6357 127.335 88.3629 128.153C88.0902 128.968 87.6679 129.562 87.0959 129.938C86.5277 130.312 85.7644 130.5 84.8061 130.5H84.1016ZM98.1854 122.966H100.776C101.727 122.966 102.553 123.119 103.254 123.426C103.954 123.733 104.496 124.165 104.879 124.722C105.265 125.278 105.458 125.934 105.458 126.688C105.458 127.441 105.265 128.104 104.879 128.676C104.496 129.248 103.954 129.695 103.254 130.017C102.553 130.339 101.727 130.5 100.776 130.5H96.4297V118.864H99.2365V128.273H100.776C101.185 128.273 101.53 128.203 101.81 128.062C102.094 127.919 102.308 127.725 102.452 127.483C102.6 127.237 102.672 126.964 102.668 126.665C102.672 126.233 102.511 125.873 102.185 125.585C101.86 125.294 101.39 125.148 100.776 125.148H98.1854V122.966ZM117.904 123.08H115.063C115.025 122.788 114.948 122.525 114.83 122.29C114.713 122.055 114.558 121.854 114.364 121.688C114.171 121.521 113.942 121.394 113.677 121.307C113.415 121.216 113.126 121.17 112.808 121.17C112.243 121.17 111.756 121.309 111.347 121.585C110.942 121.862 110.629 122.261 110.41 122.784C110.194 123.307 110.086 123.939 110.086 124.682C110.086 125.455 110.196 126.102 110.415 126.625C110.639 127.144 110.951 127.536 111.353 127.801C111.758 128.062 112.237 128.193 112.79 128.193C113.101 128.193 113.383 128.153 113.637 128.074C113.895 127.994 114.12 127.879 114.313 127.727C114.51 127.572 114.671 127.384 114.796 127.165C114.925 126.941 115.014 126.689 115.063 126.409L117.904 126.426C117.855 126.941 117.705 127.449 117.455 127.949C117.209 128.449 116.87 128.905 116.438 129.318C116.006 129.727 115.48 130.053 114.859 130.295C114.241 130.538 113.533 130.659 112.734 130.659C111.681 130.659 110.737 130.428 109.904 129.966C109.075 129.5 108.419 128.822 107.938 127.932C107.457 127.042 107.217 125.958 107.217 124.682C107.217 123.402 107.461 122.316 107.95 121.426C108.438 120.536 109.099 119.86 109.933 119.398C110.766 118.936 111.7 118.705 112.734 118.705C113.438 118.705 114.09 118.803 114.688 119C115.287 119.193 115.813 119.477 116.268 119.852C116.722 120.223 117.092 120.68 117.376 121.222C117.66 121.763 117.836 122.383 117.904 123.08ZM119.133 121.148V118.864H128.968V121.148H125.44V130.5H122.667V121.148H119.133ZM130.342 130.5V118.864H135.194C136.065 118.864 136.794 118.987 137.381 119.233C137.972 119.479 138.415 119.824 138.711 120.267C139.01 120.71 139.16 121.223 139.16 121.807C139.16 122.25 139.067 122.646 138.881 122.994C138.696 123.339 138.44 123.625 138.114 123.852C137.789 124.08 137.412 124.239 136.984 124.33V124.443C137.453 124.466 137.887 124.593 138.285 124.824C138.686 125.055 139.008 125.377 139.251 125.79C139.493 126.199 139.614 126.684 139.614 127.244C139.614 127.869 139.455 128.428 139.137 128.92C138.819 129.409 138.359 129.795 137.756 130.08C137.154 130.36 136.423 130.5 135.563 130.5H130.342ZM133.154 128.233H134.893C135.503 128.233 135.951 128.117 136.239 127.886C136.531 127.655 136.677 127.333 136.677 126.92C136.677 126.621 136.607 126.364 136.467 126.148C136.326 125.928 136.128 125.759 135.87 125.642C135.612 125.521 135.304 125.46 134.944 125.46H133.154V128.233ZM133.154 123.648H134.711C135.018 123.648 135.29 123.597 135.529 123.494C135.768 123.392 135.953 123.244 136.086 123.051C136.222 122.858 136.29 122.625 136.29 122.352C136.29 121.962 136.152 121.655 135.876 121.432C135.599 121.208 135.226 121.097 134.756 121.097H133.154V123.648ZM151.95 124.682C151.95 125.962 151.703 127.047 151.211 127.938C150.719 128.828 150.052 129.504 149.211 129.966C148.374 130.428 147.434 130.659 146.393 130.659C145.347 130.659 144.406 130.426 143.569 129.96C142.732 129.494 142.067 128.818 141.575 127.932C141.086 127.042 140.842 125.958 140.842 124.682C140.842 123.402 141.086 122.316 141.575 121.426C142.067 120.536 142.732 119.86 143.569 119.398C144.406 118.936 145.347 118.705 146.393 118.705C147.434 118.705 148.374 118.936 149.211 119.398C150.052 119.86 150.719 120.536 151.211 121.426C151.703 122.316 151.95 123.402 151.95 124.682ZM149.075 124.682C149.075 123.924 148.967 123.284 148.751 122.761C148.539 122.239 148.232 121.843 147.83 121.574C147.433 121.305 146.953 121.17 146.393 121.17C145.836 121.17 145.357 121.305 144.955 121.574C144.554 121.843 144.245 122.239 144.029 122.761C143.817 123.284 143.711 123.924 143.711 124.682C143.711 125.439 143.817 126.08 144.029 126.602C144.245 127.125 144.554 127.521 144.955 127.79C145.357 128.059 145.836 128.193 146.393 128.193C146.953 128.193 147.433 128.059 147.83 127.79C148.232 127.521 148.539 127.125 148.751 126.602C148.967 126.08 149.075 125.439 149.075 124.682ZM47.6484 152.301V147.307H48.4496C48.7185 147.125 48.9647 146.871 49.1882 146.545C49.4117 146.216 49.603 145.754 49.7621 145.159C49.9212 144.561 50.0348 143.771 50.103 142.79L50.4666 137.864H58.4268V147.307H59.6768V152.295H56.9723V149.5H50.353V152.301H47.6484ZM51.6768 147.307H55.7223V140.148H52.9893L52.8075 142.79C52.7583 143.528 52.6787 144.18 52.5689 144.744C52.459 145.309 52.3284 145.801 52.1768 146.222C52.0253 146.638 51.8587 147 51.6768 147.307ZM71.9496 143.682C71.9496 144.962 71.7034 146.047 71.2109 146.938C70.7185 147.828 70.0518 148.504 69.2109 148.966C68.3738 149.428 67.4344 149.659 66.3928 149.659C65.3473 149.659 64.406 149.426 63.5689 148.96C62.7318 148.494 62.067 147.818 61.5746 146.932C61.0859 146.042 60.8416 144.958 60.8416 143.682C60.8416 142.402 61.0859 141.316 61.5746 140.426C62.067 139.536 62.7318 138.86 63.5689 138.398C64.406 137.936 65.3473 137.705 66.3928 137.705C67.4344 137.705 68.3738 137.936 69.2109 138.398C70.0518 138.86 70.7185 139.536 71.2109 140.426C71.7034 141.316 71.9496 142.402 71.9496 143.682ZM69.0746 143.682C69.0746 142.924 68.9666 142.284 68.7507 141.761C68.5386 141.239 68.2318 140.843 67.8303 140.574C67.4325 140.305 66.9534 140.17 66.3928 140.17C65.8359 140.17 65.3568 140.305 64.9553 140.574C64.5537 140.843 64.245 141.239 64.0291 141.761C63.817 142.284 63.7109 142.924 63.7109 143.682C63.7109 144.439 63.817 145.08 64.0291 145.602C64.245 146.125 64.5537 146.521 64.9553 146.79C65.3568 147.059 65.8359 147.193 66.3928 147.193C66.9534 147.193 67.4325 147.059 67.8303 146.79C68.2318 146.521 68.5386 146.125 68.7507 145.602C68.9666 145.08 69.0746 144.439 69.0746 143.682ZM73.5916 137.864H77.0746L80.0291 145.068H80.1655L83.12 137.864H86.603V149.5H83.8643V142.352H83.7678L80.9723 149.426H79.2223L76.4268 142.312H76.3303V149.5H73.5916V137.864ZM99.3402 143.682C99.3402 144.962 99.094 146.047 98.6016 146.938C98.1091 147.828 97.4425 148.504 96.6016 148.966C95.7644 149.428 94.825 149.659 93.7834 149.659C92.7379 149.659 91.7966 149.426 90.9595 148.96C90.1224 148.494 89.4576 147.818 88.9652 146.932C88.4766 146.042 88.2322 144.958 88.2322 143.682C88.2322 142.402 88.4766 141.316 88.9652 140.426C89.4576 139.536 90.1224 138.86 90.9595 138.398C91.7966 137.936 92.7379 137.705 93.7834 137.705C94.825 137.705 95.7644 137.936 96.6016 138.398C97.4425 138.86 98.1091 139.536 98.6016 140.426C99.094 141.316 99.3402 142.402 99.3402 143.682ZM96.4652 143.682C96.4652 142.924 96.3572 142.284 96.1413 141.761C95.9292 141.239 95.6224 140.843 95.2209 140.574C94.8232 140.305 94.344 140.17 93.7834 140.17C93.2266 140.17 92.7474 140.305 92.3459 140.574C91.9444 140.843 91.6357 141.239 91.4197 141.761C91.2076 142.284 91.1016 142.924 91.1016 143.682C91.1016 144.439 91.2076 145.08 91.4197 145.602C91.6357 146.125 91.9444 146.521 92.3459 146.79C92.7474 147.059 93.2266 147.193 93.7834 147.193C94.344 147.193 94.8232 147.059 95.2209 146.79C95.6224 146.521 95.9292 146.125 96.1413 145.602C96.3572 145.08 96.4652 144.439 96.4652 143.682ZM100.982 149.5V137.864H105.835C106.706 137.864 107.435 137.987 108.022 138.233C108.613 138.479 109.056 138.824 109.352 139.267C109.651 139.71 109.8 140.223 109.8 140.807C109.8 141.25 109.708 141.646 109.522 141.994C109.336 142.339 109.081 142.625 108.755 142.852C108.429 143.08 108.052 143.239 107.624 143.33V143.443C108.094 143.466 108.528 143.593 108.925 143.824C109.327 144.055 109.649 144.377 109.891 144.79C110.134 145.199 110.255 145.684 110.255 146.244C110.255 146.869 110.096 147.428 109.778 147.92C109.46 148.409 108.999 148.795 108.397 149.08C107.795 149.36 107.064 149.5 106.204 149.5H100.982ZM103.795 147.233H105.533C106.143 147.233 106.592 147.117 106.88 146.886C107.172 146.655 107.317 146.333 107.317 145.92C107.317 145.621 107.247 145.364 107.107 145.148C106.967 144.928 106.768 144.759 106.511 144.642C106.253 144.521 105.944 144.46 105.585 144.46H103.795V147.233ZM103.795 142.648H105.352C105.658 142.648 105.931 142.597 106.17 142.494C106.408 142.392 106.594 142.244 106.727 142.051C106.863 141.858 106.931 141.625 106.931 141.352C106.931 140.962 106.793 140.655 106.516 140.432C106.24 140.208 105.867 140.097 105.397 140.097H103.795V142.648Z" fill="black"/>
</g>
<defs>
<clipPath id="clip0_0_3">
<rect width="158" height="156" fill="white"/>
</clipPath>
</defs>
</svg>
